# xmcd CD database file
#
# Track frame offsets:
#	187
#	21545
#	37365
#	49477
#	58997
#	88402
#	105097
#
# Disc length: 1552 seconds
#
# Revision: 3
# Processed by: cddbd v1.5.2PL0 Copyright (c) Steve Scherf et al.
# Submitted via: jetAudio 7
#
DISCID=68060e07
DTITLE=Chet Atkins - The Best Of Chet Atkins And Friends
DYEAR=1995
DGENRE=Easy Listening
TTITLE0=Sweet Georgia Brown
TTITLE1=Twitchy
TTITLE2=Do I Ever Cross Your Mind
TTITLE3=Sail Along Silv'ry Moon
TTITLE4=Avalon
TTITLE5=The Battle Of New Orleans - Sugarfoot Rag
TTITLE6=Terry On The Turnpike
EXTD=
EXTT0=
EXTT1=
EXTT2=
EXTT3=
EXTT4=
EXTT5=
EXTT6=
PLAYORDER=
